<svg class="nc-icon glyph" xmlns="http://www.w3.org/2000/svg" xmlns:xlink="http://www.w3.org/1999/xlink" x="0px" y="0px" width="48px" height="48px" viewBox="0 0 48 48">
<g>
<path fill="#ffffff" d="M24,1C11.317,1,1,11.318,1,24s10.317,23,23,23s23-10.318,23-23S36.683,1,24,1z M24,45
	c-5.303,0-10.139-1.991-13.839-5.245c0.648-3.814,3.223-5.18,6.839-6.385c2.15-0.717,3.183-2.503,3.694-4.091
	C17.927,28.02,16,25.238,16,22v-2c0-4.418,3.582-8,8-8s8,3.582,8,8v2c0,3.237-1.927,6.019-4.693,7.278
	c0.515,1.59,1.552,3.378,3.693,4.091c3.616,1.205,6.187,2.575,6.834,6.389C34.135,43.01,29.301,45,24,45z"></path>
</g>
</svg>