<?xml version="1.0" encoding="utf-8"?>
<!-- Generator: Adobe Illustrator 16.0.0, SVG Export Plug-In . SVG Version: 6.00 Build 0)  -->
<!DOCTYPE svg PUBLIC "-//W3C//DTD SVG 1.1//EN" "http://www.w3.org/Graphics/SVG/1.1/DTD/svg11.dtd">
<svg version="1.1" id="Layer_1" xmlns="http://www.w3.org/2000/svg" xmlns:xlink="http://www.w3.org/1999/xlink" x="0px" y="0px"
	 width="48px" height="48px" viewBox="0 0 48 48" enable-background="new 0 0 48 48" xml:space="preserve">
<g>
	<path fill="#5BC28D" d="M10,19c-0.552,0-1-0.448-1-1c0-4.962,4.038-9,9-9c0.552,0,1,0.448,1,1s-0.448,1-1,1c-3.86,0-7,3.14-7,7
		C11,18.552,10.552,19,10,19z"/>
	<path fill="#5BC28D" d="M46.121,41.879l-10-10c-0.922-0.923-2.291-1.107-3.405-0.577l-2.026-2.026C33.361,26.27,35,22.328,35,18
		c0-9.374-7.626-17-17-17S1,8.626,1,18s7.626,17,17,17c4.328,0,8.27-1.639,11.275-4.311l2.026,2.026
		c-0.53,1.114-0.345,2.483,0.577,3.405l10,10C42.464,46.707,43.232,47,44,47s1.536-0.293,2.121-0.879
		C47.293,44.95,47.293,43.05,46.121,41.879z M3,18C3,9.729,9.729,3,18,3c8.271,0,15,6.729,15,15c0,8.271-6.729,15-15,15
		C9.729,33,3,26.271,3,18z"/>
</g>
</svg>
