<?xml version="1.0" encoding="utf-8"?>
<!-- Generator: Adobe Illustrator 16.0.0, SVG Export Plug-In . SVG Version: 6.00 Build 0)  -->
<!DOCTYPE svg PUBLIC "-//W3C//DTD SVG 1.1//EN" "http://www.w3.org/Graphics/SVG/1.1/DTD/svg11.dtd">
<svg version="1.1" id="Layer_1" xmlns="http://www.w3.org/2000/svg" xmlns:xlink="http://www.w3.org/1999/xlink" x="0px" y="0px"
	 width="48px" height="48px" viewBox="0 0 48 48" enable-background="new 0 0 48 48" xml:space="preserve">
<g>
	<path fill="#FFFFFF" d="M24,25c6.064,0,11-4.935,11-11v-2c0-6.065-4.936-11-11-11c-6.065,0-11,4.935-11,11v2
		C13,20.065,17.935,25,24,25z"/>
	<path fill="#FFFFFF" d="M39.277,31.186C35.926,30.188,30.555,29,24,29c-6.554,0-11.926,1.188-15.278,2.186
		C5.3,32.203,3,35.286,3,38.855V46c0,0.552,0.448,1,1,1h40c0.552,0,1-0.448,1-1v-7.145C45,35.286,42.7,32.203,39.277,31.186z"/>
</g>
</svg>
